<?xml version="1.0" encoding="utf-8"?><svg version="1.1" id="Layer_1" xmlns="http://www.w3.org/2000/svg" xmlns:xlink="http://www.w3.org/1999/xlink" x="0px" y="0px" viewBox="0 0 50 50" style="enable-background:new 0 0 50 50;" xml:space="preserve"><style type="text/css">	.st0{fill:#4f90cd;}</style><path class="st0" d="M25,18.4c-3.6,0-6.6,3-6.6,6.6c0,3.6,3,6.6,6.6,6.6s6.6-3,6.6-6.6C31.6,21.4,28.6,18.4,25,18.4z M25,30.1	c-1.6,0-3-0.7-3.9-1.8h2c0.4,0,0.7-0.3,0.7-0.7s-0.3-0.7-0.7-0.7h-2.4c-0.1,0-0.3,0.1-0.4,0.1c-0.2-0.4-0.3-0.9-0.4-1.3c0,0,0,0,0,0	h4.2c0.4,0,0.7-0.3,0.7-0.7c0-0.4-0.3-0.7-0.7-0.7h-4.2c0,0,0,0,0,0c0.1-0.4,0.2-0.8,0.3-1.2c0,0,0.1,0,0.1,0h5.7	c0.4,0,0.7-0.3,0.7-0.7s-0.3-0.7-0.7-0.7h-5c0.9-1.1,2.3-1.7,3.9-1.7c2.8,0,5.1,2.3,5.1,5.1C30.1,27.8,27.8,30.1,25,30.1z"/><path class="st0" d="M25,10.5c-3.1,0-6,1-8.5,2.8c-0.9-0.6-2-0.6-2.1-0.6c-2,0-3.7,1.7-3.7,3.7c0,1,0.4,1.9,1.1,2.6	c-0.9,1.9-1.3,3.9-1.3,6.1c0,8,6.5,14.5,14.5,14.5S39.5,33,39.5,25S33,10.5,25,10.5z M14.4,14.1c0.2,0,0.8,0,1.2,0.3l0.3,0.3	c0.4,0.4,0.7,1,0.7,1.6c0,1.2-1,2.2-2.2,2.2c-0.5,0-0.9-0.1-1.3-0.4c0,0,0,0,0,0c-0.6-0.4-1-1.1-1-1.8	C12.1,15.1,13.1,14.1,14.4,14.1z M25,38.1c-7.2,0-13.1-5.9-13.1-13.1c0-1.8,0.4-3.6,1.1-5.2c0.4,0.2,0.9,0.3,1.4,0.3	c2,0,3.7-1.7,3.7-3.7c0-0.7-0.2-1.4-0.6-2c2.2-1.6,4.8-2.4,7.5-2.4c7.2,0,13.1,5.9,13.1,13.1S32.2,38.1,25,38.1z"/><path class="st0" d="M25,0C11.2,0,0,11.2,0,25s11.2,25,25,25c4.2,0,8.3-1.1,11.9-3c1,0.9,2.3,1.5,3.7,1.5c3,0,5.4-2.4,5.4-5.3	c0-0.1,0.1-1.9-0.9-3.2c3.2-4.3,5-9.5,5-14.9C50,11.2,38.8,0,25,0z M44.5,43.1c0,2.2-1.8,3.9-3.9,3.9c-1.2,0-2.2-0.5-3-1.4	c-0.6-0.7-0.9-1.6-0.9-2.5c0-2.2,1.8-3.9,3.9-3.9c1.1,0,2.2,0.5,2.9,1.3L44,41C44.6,41.9,44.5,43,44.5,43.1z M44,38.9	c-1-0.8-2.2-1.2-3.4-1.2c-3,0-5.4,2.4-5.4,5.4c0,1,0.3,1.9,0.8,2.8c-3.4,1.8-7.2,2.7-11,2.7C12,48.5,1.5,38,1.5,25S12,1.5,25,1.5	S48.5,12,48.5,25C48.5,30.1,47,34.8,44,38.9z"/></svg>