<?xml version="1.0" encoding="utf-8"?><svg version="1.1" id="Layer_1" xmlns="http://www.w3.org/2000/svg" xmlns:xlink="http://www.w3.org/1999/xlink" x="0px" y="0px"	 viewBox="0 0 1224 792" style="enable-background:new 0 0 1224 792;" xml:space="preserve"><style type="text/css">	.st0{opacity:0.08;fill:#4f90cd;enable-background:new    ;}</style><g>	<path class="st0" d="M666.2,529c0-25.3-20.4-45.8-45.8-45.8c-25.3,0-45.8,20.4-45.8,45.8c0,24.9,20,45.1,44.6,45.8V792h2.3V574.7		C646.2,574,666.2,553.8,666.2,529z M577,529c0-23.9,19.5-43.4,43.4-43.4s43.4,19.5,43.4,43.4s-19.5,43.4-43.4,43.4		S577,552.9,577,529z"/>	<path class="st0" d="M502.9,611c0-27.6-22.5-50.4-50.4-50.4c-27.9,0-50.4,22.5-50.4,50.4c0,27.2,21.6,49.2,48.3,50.2v129.6h2.3		V661.1C480.4,661.1,502.9,638.6,502.9,611z M404.7,611c0-26.5,21.6-48.1,48.1-48.1s48.1,21.6,48.1,48.1s-21.6,48.1-48.1,48.1		S404.7,637.5,404.7,611z"/>	<path class="st0" d="M487.1,631.4c0.2-0.5,1.2-1.6,1.4-2.3s0-2.6,0-3.3c0-0.5-0.5-0.7-0.7-0.7h-6.5v-31.6c0-1.9-1.4-3.3-3.3-3.3		h-50.9c-1.9,0-3.3,1.4-3.3,3.3v31.6h-6.5c-0.5,0-0.7,0.2-0.7,0.7s-0.2,2.3,0,3.3c0.2,0.7,1.2,1.9,1.4,2.3c0.2,0.2,0.5,0.2,0.7,0.2		h67.8C486.7,631.6,486.9,631.6,487.1,631.4z M425.6,593.5c0-0.9,0.7-1.6,1.6-1.6h50.9c0.9,0,1.6,0.7,1.6,1.6v31.6h-2.8v-29.7		c0-0.5-0.5-0.7-0.7-0.7H429c-0.5,0-0.7,0.5-0.7,0.7v29.7h-2.8L425.6,593.5L425.6,593.5z M457.2,625.1c-0.5,0-0.7,0.5-0.7,0.7v0.7		h-7.7v-0.7c0-0.5-0.5-0.7-0.7-0.7H430v-28.8h45.5v28.8H457.2z M419.1,630c-0.5-0.7-0.9-1.2-0.9-1.4s0-1.2,0-1.9h6.5h4.4h18.1v0.7		c0,0.5,0.5,0.7,0.7,0.7h9.3c0.5,0,0.7-0.5,0.7-0.7v-0.7H476h4.4h6.5c0,0.7,0,1.6,0,1.9s-0.5,0.9-0.9,1.4H419.1L419.1,630z"/>			<rect x="444.092" y="606.683" transform="matrix(0.7072 -0.7071 0.7071 0.7072 -297.5427 496.5626)" class="st0" width="13.202" height="1.6"/>			<rect x="442.106" y="610.193" transform="matrix(0.7071 -0.7071 0.7071 0.7071 -298.8421 500.5164)" class="st0" width="25.3" height="1.6"/>	<path class="st0" d="M648.1,548.9v-6.5v-33.7c0-0.5-0.2-0.7-0.7-0.7h-54.1c-0.5,0-0.7,0.2-0.7,0.7v33.7v6.5c0,0.5,0.2,0.7,0.7,0.7		h54.1C647.9,549.6,648.1,549.4,648.1,548.9z M594.2,509.7h52.5v32h-52.5V509.7z M594.2,548.3v-4.9h52.5v4.9H594.2z"/>	<rect x="597" y="545" class="st0" width="3.9" height="1.4"/>	<polygon class="st0" points="635.3,544.1 633.7,544.1 633.7,545 606.1,545 606.1,546.4 633.7,546.4 633.7,547.3 635.3,547.3 		635.3,546.4 643.7,546.4 643.7,545 635.3,545 	"/>	<path class="st0" d="M632.8,525l-20.2-11.8c-0.2-0.2-0.5-0.2-0.7,0s-0.5,0.5-0.5,0.7v23.5c0,0.2,0.2,0.5,0.5,0.7c0,0,0.2,0,0.5,0		c0.2,0,0.2,0,0.5,0l20.2-11.8c0.2-0.2,0.5-0.5,0.5-0.7C633.2,525.5,633,525.3,632.8,525z M613,536.2v-20.9l18.1,10.4L613,536.2z"/>	<path class="st0" d="M499.4,711.6c8.1-0.7,14.6-7.4,14.6-15.8c0-8.8-7.2-15.8-15.8-15.8c-8.8,0-15.8,7.2-15.8,15.8		c0,8.4,6.5,15.1,14.6,15.8v22.5h48.1v57.6h2.3v-59.9h-48.1v-20.2L499.4,711.6L499.4,711.6z M484.6,695.8c0-7.4,6-13.5,13.5-13.5		c7.4,0,13.5,6,13.5,13.5s-6,13.5-13.5,13.5C490.8,709.2,484.6,703.2,484.6,695.8z"/>	<path class="st0" d="M808.6,637.9c-7,0-12.8,5.8-12.8,12.8c0,6.7,5.1,12.1,11.6,12.8v64.3h-58.5V578.4c5.3-0.7,9.3-5.1,9.3-10.5		c0-5.8-4.9-10.7-10.7-10.7s-10.7,4.9-10.7,10.7c0,5.6,4.2,10,9.8,10.7V728h-98.3v-49.5h48.8v-55.1c6.5-0.7,11.6-6,11.6-12.8		c0-7-5.8-12.8-12.8-12.8s-12.8,5.8-12.8,12.8c0,6.7,5.1,12.3,11.8,12.8v52.7h-48.8v115h2.3v-60.9h161.7v-66.5		c6.5-0.5,11.8-6,11.8-12.8C821.4,643.7,815.6,637.9,808.6,637.9z M738.9,567.8c0-4.6,3.7-8.4,8.4-8.4c4.6,0,8.4,3.7,8.4,8.4		c0,4.6-3.7,8.4-8.4,8.4C742.9,576.1,738.9,572.4,738.9,567.8z M685,610.5c0-5.8,4.6-10.5,10.5-10.5c5.8,0,10.5,4.6,10.5,10.5		c0,5.8-4.6,10.5-10.5,10.5C689.7,621,685,616.3,685,610.5z M808.6,661.1c-5.8,0-10.5-4.6-10.5-10.5c0-5.8,4.6-10.5,10.5-10.5		c5.8,0,10.5,4.6,10.5,10.5S814.4,661.1,808.6,661.1z"/></g></svg>