<?xml version="1.0" encoding="utf-8"?><svg version="1.1" id="Layer_1" xmlns="http://www.w3.org/2000/svg" xmlns:xlink="http://www.w3.org/1999/xlink" x="0px" y="0px"	 viewBox="0 0 1224 792" style="enable-background:new 0 0 1224 792;" xml:space="preserve"><style type="text/css">	.st0{opacity:0.08;fill:#4f90cd;enable-background:new    ;}</style><g>	<path class="st0" d="M616.7,137.6c-2.1,2.1-2.1,5.1,0,7.2c1,1,2.3,1.4,3.5,1.4c1.4,0,2.7-0.6,3.5-1.4c1-1,1.4-2.3,1.4-3.5		s-0.6-2.7-1.4-3.5C621.9,135.799,618.6,135.799,616.7,137.6z M621.701,142.6c-0.8,0.8-2.1,0.8-2.9,0c-0.8-0.8-0.8-2.1,0-2.9		c0.4-0.4,0.8-0.6,1.4-0.6s1,0.2,1.4,0.6c0.4,0.4,0.6,0.8,0.6,1.4C622.3,141.7,622.099,142.1,621.701,142.6z"/>	<path class="st0" d="M620.2,125.5c-4.9,0-9.5,1.9-13,5.3c-0.199,0.2-0.4,0.6-0.4,1c0,0.4,0.2,0.8,0.4,1l3.3,3.3		c0.6,0.6,1.599,0.6,2.1,0c2.1-2.1,4.7-3.1,7.6-3.1s5.599,1,7.6,3.1c0.199,0.2,0.6,0.4,1,0.4s0.8-0.2,1-0.4l3.3-3.3		c0.2-0.2,0.4-0.6,0.4-1s-0.199-0.8-0.4-1C629.9,127.3,625.2,125.5,620.2,125.5z M628.901,133.1c-2.5-2.1-5.6-3.1-8.6-3.1		s-6.2,1-8.6,3.1l-1-1c2.7-2.3,6.2-3.5,9.7-3.5s7,1.2,9.7,3.5L628.901,133.1z"/>	<path class="st0" d="M620.2,114.8c-7.6,0-14.8,2.9-20.4,8.4c-0.2,0.2-0.4,0.6-0.4,1s0.199,0.8,0.4,1l3.3,3.3c0.2,0.2,0.6,0.4,1,0.4		s0.8-0.2,1-0.4c3.9-3.9,9.3-6.2,15-6.2c5.8,0,10.9,2.3,15,6.2c0.6,0.6,1.601,0.6,2.1,0l3.3-3.3c0.2-0.2,0.4-0.6,0.4-1		s-0.2-0.8-0.4-1C635.201,117.9,628,114.8,620.2,114.8z M636.3,125.5c-4.3-3.9-10.099-6-16-6c-5.9,0-11.5,2.1-16,6l-1-1		c4.7-4.1,10.7-6.6,17.1-6.6c6.4,0,12.3,2.3,17.1,6.6L636.3,125.5z"/>	<path class="st0" d="M1157.599,112.5v-4.1V107V74.099v-1.4v-3.3c0-1.9-1.4-3.3-3.3-3.3h-21.6c-1.9,0-3.3,1.4-3.3,3.3v3.3v1.4v32.9		v1.4v4.1c0,1.9,1.4,3.3,3.3,3.3h21.6C1156.1,115.8,1157.599,114.4,1157.599,112.5z M1130.8,69.3c0-1,0.8-1.9,1.9-1.9h21.6		c1,0,1.9,0.8,1.9,1.9v3.3h-25.3L1130.8,69.3L1130.8,69.3z M1130.8,74.099h25.3v32.9h-25.3V74.099z M1130.8,112.5v-4.1h25.3v4.1		c0,1-0.8,1.9-1.9,1.9h-21.6C1131.6,114.4,1130.8,113.6,1130.8,112.5z"/>	<rect x="1140.7" y="110.7" class="st0" width="5.3" height="1.4"/>	<rect x="1140.5" y="69.5" class="st0" width="1.6" height="1.4"/>	<rect x="1143.199" y="69.5" class="st0" width="4.7" height="1.4"/>			<rect x="1135.08" y="87.503" transform="matrix(0.7071 -0.7071 0.7071 0.7071 271.7135 832.3812)" class="st0" width="11.1" height="1.4"/>			<rect x="1133.658" y="90.726" transform="matrix(0.7071 -0.7071 0.7071 0.7071 270.4977 835.8907)" class="st0" width="21.2" height="1.4"/>	<path class="st0" d="M207.4,86.6h1.4c0-4.1,3.3-7.4,7.4-7.4v-1.4C211.5,77.6,207.4,81.699,207.4,86.6z"/>	<path class="st0" d="M226.5,74.3l1.2,1c2.1-2.3,5.1-3.7,8.2-3.7c1.2,0,2.3,0.2,3.3,0.4l0.4-1.4c-1.2-0.4-2.5-0.6-3.7-0.6		C232.3,70.099,228.8,71.6,226.5,74.3z"/>	<path class="st0" d="M252.8,79.8c-1.4-8.2-8.4-14.2-16.9-14.2c-6.4,0-11.9,3.3-15,8.8c-1.6-0.8-3.5-1-5.3-1		c-7.4,0-13.4,6-13.4,13.4c0,7.4,6,13.4,13.4,13.4h9.5v10.5c0,0.4,0.4,0.8,0.8,0.8h4.7c0.4,0,0.8-0.4,0.8-0.8v-10.501h6.4v3.9h-2.1		c-0.2,0-0.6,0.2-0.6,0.4c-0.2,0.2,0,0.6,0,0.8l5.3,6.6c0.2,0.2,0.4,0.2,0.6,0.2c0.2,0,0.4-0.2,0.6-0.2l5.3-6.6		c0.2-0.2,0.2-0.6,0-0.8c-0.2-0.2-0.4-0.4-0.6-0.4h-2.1v-3.9h11.5c5.8,0,10.3-4.5,10.3-10.3c0-5.8-4.5-10.3-10.3-10.3		C254.7,79.4,253.6,79.6,252.8,79.8z M229.8,109.9h-3.3V99.4V94c0-0.4-0.4-0.8-0.8-0.8h-1.2l3.7-4.5l3.7,4.5h-1.4		c-0.4,0-0.8,0.4-0.8,0.8v5.3v10.5L229.8,109.9L229.8,109.9z M244.4,105.5l-3.7,4.5l-3.7-4.5h1.2c0.4,0,0.8-0.4,0.8-0.8v-5.6v-10.2		h3.3v10.3v5.6c0,0.4,0.4,0.8,0.8,0.8h1.3L244.4,105.5L244.4,105.5z M264.3,89.7c0,4.7-3.9,8.8-8.8,8.8h-11.5V88.3		c0-0.4-0.4-0.8-0.8-0.8h-4.7c-0.4,0-0.8,0.4-0.8,0.8v10.3h-6.4v-3.9h2.1c0.2,0,0.6-0.2,0.6-0.4c0.2-0.2,0-0.6,0-0.8l-5.3-6.6		c-0.2-0.4-0.8-0.4-1.2,0l-5.3,6.6c-0.2,0.2-0.2,0.6,0,0.8c0.2,0.2,0.4,0.4,0.6,0.4h2.1v3.9h-9.5c-6.6,0-11.7-5.3-11.7-11.7		c0-6.6,5.3-11.7,11.7-11.7c1.9,0,3.7,0.4,5.3,1.2c0.2,0,0.4,0.2,0.6,0c0.2,0,0.4-0.2,0.4-0.4c2.7-5.3,8-8.6,14-8.6		c8,0,14.6,6,15.6,13.8c0,0.2,0.2,0.4,0.4,0.6c0.201,0.2,0.4,0.2,0.6,0c1-0.4,2.1-0.6,3.1-0.6C260.4,81.1,264.3,85,264.3,89.7z"/>	<path class="st0" d="M657.3,128.6c0-20.2-16.3-36.6-36.4-37V41.8h-57v-41h-2.1v42.8h57v47.7c-19.7,0.799-35.6,17.1-35.6,37		c0,20.4,16.7,37,37,37C640.8,165.6,657.3,148.9,657.3,128.6z M620.2,163.5c-19.3,0-35-15.6-35-35s15.6-35,35-35		c19.3,0,35,15.6,35,35C655.2,147.899,639.6,163.5,620.2,163.5z"/>	<path class="st0" d="M234.1,45.699c-22.2,0-40.5,17.9-41.1,39.9H76.1V59.9H0V62h74.1v25.7H193c0.4,22.2,18.7,40.3,41.1,40.3		c22.6,0,41.1-18.5,41.1-41.1S256.9,45.699,234.1,45.699z M234.1,125.9c-21.6,0-39.1-17.5-39.1-39.1s17.5-39.1,39.1-39.1		s39.1,17.5,39.1,39.1S255.7,125.9,234.1,125.9z"/>	<path class="st0" d="M1144.8,188.399v-60.3c20.6-0.8,37-17.7,37-38.3c0-21.2-17.299-38.5-38.5-38.5c-21.201,0-38.5,17.3-38.5,38.5		c0,21,16.901,38.1,37.6,38.5v62.3h81.5v-2.1L1144.8,188.399L1144.8,188.399L1144.8,188.399z M1107.199,89.9		c0-20,16.3-36.4,36.4-36.4c20,0,36.4,16.3,36.4,36.4c0,19.5-15.6,35.6-35,36.2v-0.4h-2.1v0.4		C1123,125.7,1107.199,109.599,1107.199,89.9z"/>	<path class="st0" d="M510.4,78.8c4.7,0,8.6-3.7,9.1-8.2h28V0.8h-2.1v67.5h-25.9c-0.6-4.5-4.3-8.2-9.1-8.2c-5.1,0-9.3,4.1-9.3,9.3		S505.2,78.8,510.4,78.8z M510.4,62.3c3.9,0,7.2,3.3,7.2,7.2s-3.3,7.2-7.2,7.2c-3.9,0-7.2-3.3-7.2-7.2		C503.2,65.6,506.5,62.3,510.4,62.3z"/>	<path class="st0" d="M412.5,175.7V34.8h-42.6V0.8h-2.1v125.7c-6.6,0.4-11.7,5.8-11.7,12.3c0,6.8,5.6,12.5,12.5,12.5		c6.8,0,12.5-5.6,12.5-12.5c0-6.4-4.9-11.7-11.1-12.3V36.799h40.5v138.9c-4.7,0.4-8.6,4.3-8.6,9.3c0,5.1,4.1,9.3,9.3,9.3		c5.2,0,9.3-4.1,9.3-9.3C420.3,180.2,416.8,176.5,412.5,175.7z M378.9,139.1c0,5.8-4.7,10.5-10.5,10.5c-5.8,0-10.5-4.7-10.5-10.5		s4.7-10.5,10.5-10.5C374.2,128.6,378.9,133.3,378.9,139.1z M411,191.9c-3.9,0-7.2-3.3-7.2-7.2c0-3.9,3.3-7.2,7.2-7.2		s7.2,3.3,7.2,7.2C418.2,188.6,414.9,191.9,411,191.9z"/>	<path class="st0" d="M171.4,148.299c-4.7,0-8.6,3.5-9.1,8.2h-61.5v23.7H0v2.1h102.9v-23.7h59.2c0.4,4.7,4.3,8.2,9.3,8.2		c5.1,0,9.3-4.1,9.3-9.3C180.7,152.3,176.5,148.299,171.4,148.299z M171.4,164.8c-3.9,0-7.2-3.3-7.2-7.2c0-3.9,3.3-7.2,7.2-7.2		c3.9,0,7.2,3.3,7.2,7.2C178.6,161.5,175.3,164.8,171.4,164.8z"/>	<path class="st0" d="M965.2,131.9c-4.9,0-8.8,3.7-9.3,8.6h-55.3V95.9v-1V75.7c4.5-0.6,8-4.5,8-9.1c0-5.1-4.1-9.3-9.3-9.3		c-5.1,0-9.3,4.1-9.3,9.3c0,4.7,3.7,8.6,8.4,9.3V94h-38.9V0h-2.1v95.9h40.9v46.7H956c0.6,4.5,4.5,7.8,9.1,7.8c5.1,0,9.3-4.1,9.3-9.3		C974.3,136,970.4,131.9,965.2,131.9z M892.2,66.7c0-3.9,3.3-7.2,7.2-7.2s7.2,3.3,7.2,7.2s-3.3,7.2-7.2,7.2S892.2,70.6,892.2,66.7z		 M965.2,148.299c-3.9,0-7.2-3.3-7.2-7.2c0-3.9,3.3-7.2,7.2-7.2s7.2,3.3,7.2,7.2C972.4,145,969.1,148.299,965.2,148.299z"/>	<path class="st0" d="M1103,224.799c-4.5,0.6-7.8,4.5-7.8,9.1c0,5.1,4.1,9.3,9.3,9.3c5.1,0,9.3-4.1,9.3-9.3c0-4.9-3.7-8.8-8.6-9.3		v-23.2H1224v-2.1h-121V224.799z M1111.5,234.1c0,3.9-3.3,7.2-7.2,7.2c-3.9,0-7.2-3.3-7.2-7.2c0-3.9,3.3-7.2,7.2-7.2		C1108.2,226.9,1111.5,230,1111.5,234.1z"/></g></svg>